<?xml version="1.0" encoding="UTF-8"?>
<svg xmlns="http://www.w3.org/2000/svg" xmlns:xlink="http://www.w3.org/1999/xlink" width="600pt" height="600pt" viewBox="0 0 600 600" version="1.1">
<g id="surface1">
<path style=" stroke:none;fill-rule:nonzero;fill:rgb(0%,0%,0%);fill-opacity:1;" d="M 0 300 L 0 600 L 600 600 L 600 0 L 0 0 Z M 276 161.5 C 276 163.398438 276.410156 165 276.898438 165 C 279.898438 165 288.613281 162.640625 289.453125 161.601562 C 292.011719 158.445312 306.960938 158.699219 306.984375 161.898438 C 306.996094 163.199219 307.167969 163.238281 307.890625 162.101562 C 309.109375 160.179688 318 161.5 318 163.601562 C 318 164.363281 319.25 165.273438 320.75 165.601562 C 322.238281 165.925781 325.449219 167.070312 327.75 168.101562 C 330.050781 169.128906 333.148438 170 334.5 170 C 336 170 337 170.578125 337 171.449219 C 337 172.269531 338.300781 173.808594 340 175 C 342.5 176.75 343 176.84375 343 175.550781 C 343 174.308594 344.199219 174 349 174 L 355 174 L 355 177 C 355 179.855469 354.800781 180 350.898438 180 C 347.398438 180 346.976562 180.21875 348 181.5 C 348.671875 182.339844 350.699219 183 352.601562 183 C 355.699219 183 356 183.265625 356 186 C 356 188.300781 356.46875 189 358 189 C 359.601562 189 360 189.699219 360 192.5 C 360 194.398438 360.503906 196 361.101562 196 C 361.742188 196 362.011719 197 361.75 198.398438 C 361.339844 200.601562 361.5 200.726562 363.699219 199.898438 C 364.972656 199.421875 367.25 199 368.550781 199 C 370.527344 199 371 199.5 371 201.601562 C 371 204.300781 369 207 367 207 C 366.230469 207 366.125 207.449219 366.699219 208.25 C 367.203125 208.945312 368.238281 212.601562 369.039062 216.5 C 370.742188 224.800781 370.789062 255.257812 369.101562 255.828125 C 368.5 256.03125 368 256.585938 368 257.050781 C 368 257.523438 366.445312 261.101562 364.5 265.101562 C 362.554688 269.101562 361 273.746094 361 275.550781 C 361 278.25 360.492188 278.976562 358 279.851562 C 356 280.550781 355 281.582031 355 282.949219 C 355 284.148438 354.378906 285 353.5 285 C 352.675781 285 352 285.898438 352 287 C 352 288.101562 351.371094 289 350.601562 289 C 349.828125 289 347.761719 290.800781 346 293 C 344.238281 295.199219 343.296875 297 343.898438 297 C 344.523438 297 345 298.300781 345 300 C 345 302.5 344.574219 303 342.449219 303 C 340.453125 303 339.585938 303.75 338.449219 306.449219 C 337.652344 308.351562 337.292969 310.640625 337.648438 311.550781 C 338.003906 312.449219 337.777344 313.519531 337.148438 313.898438 C 336.511719 314.289062 335.546875 317 334.984375 320 C 333.945312 325.5 331.703125 330 330 330 C 329.496094 330 329.117188 336.199219 329.140625 344 C 329.191406 360 328.199219 363.144531 323.199219 362.855469 C 320.5 362.699219 320.5 362.699219 323 362.265625 C 326.980469 361.578125 328 359.300781 328 351.101562 C 328 344.300781 327.863281 343.78125 326.550781 345.550781 C 325.183594 347.390625 325.089844 347.300781 324.898438 344 C 324.722656 340.898438 324.652344 340.8125 324.300781 343.25 C 323.953125 345.628906 323.398438 346.019531 320.199219 346.148438 C 318.199219 346.230469 315.8125 346.207031 315 346.101562 C 314.199219 345.992188 312.449219 345.808594 311.25 345.699219 C 310.050781 345.59375 309 345.21875 309 344.898438 C 309 344.566406 307 344.433594 304.5 344.601562 C 302 344.765625 299.753906 344.476562 299.449219 343.949219 C 299.144531 343.421875 300.800781 342.957031 303.199219 342.898438 C 305.601562 342.84375 308.824219 342.46875 310.5 342.050781 C 312.339844 341.589844 310.601562 341.394531 306 341.550781 C 301.898438 341.6875 298.273438 341.914062 298 342.050781 C 297.722656 342.1875 294.601562 342.367188 291 342.449219 C 287.402344 342.53125 280.300781 342.980469 275.101562 343.449219 L 265.699219 344.300781 L 266.351562 338.898438 C 266.710938 335.898438 267.199219 332.523438 267.449219 331.300781 C 267.757812 329.800781 267.46875 329.257812 266.550781 329.601562 C 265.828125 329.867188 263.992188 328.800781 262.601562 327.300781 C 260.640625 325.191406 260 323.449219 260 320.25 C 260 316.351562 259.792969 316 257.5 316 C 255.417969 316 255 315.5 255 313 C 255 311 255.5 310 256.5 310 C 258.214844 310 258.304688 309.601562 257.132812 307.199219 C 256.675781 306.269531 255.257812 303.351562 254 300.75 C 252.742188 298.148438 251.316406 296 250.851562 296 C 250.386719 296 250 295.5 250 294.898438 C 250 293.199219 237.574219 277.699219 237.171875 278.898438 C 236.605469 280.605469 231.296875 280.199219 230.609375 278.398438 C 230.273438 277.519531 230 274.601562 230 271.898438 C 230 267.699219 229.714844 267 228 267 C 226.898438 267 226 266.324219 226 265.5 C 226 264.699219 225.347656 264 224.601562 264 C 223.203125 264 222.066406 261 222.023438 257.199219 C 222.011719 256 222.453125 255 223 255 C 223.558594 255 224 253.898438 224 252.5 C 224 251.101562 224.351562 250 224.800781 250 C 225.234375 250 225.417969 248.398438 225.199219 246.5 C 224.984375 244.601562 224.390625 243 223.898438 243 C 223.390625 243 223 241.699219 223 240 C 223 238.300781 223.433594 237 224 237 C 224.566406 237 225 235.699219 225 234 C 225 232.300781 224.566406 231 224 231 C 223.449219 231 223 228.300781 223 225 C 223 220 223.292969 218.984375 224.75 218.898438 C 225.75 218.84375 225.984375 218.59375 225.300781 218.316406 C 223.308594 217.511719 223.699219 212.222656 225.800781 211.5625 C 226.828125 211.242188 228.929688 208 230.699219 204 C 233.578125 197.5 233.664062 197 231.898438 197 C 230.441406 197 230 196.300781 230 194 C 230 191.398438 230.386719 191 232.898438 191 C 237.273438 191 237.269531 193.699219 232.890625 202.601562 C 227.945312 212.644531 226.046875 221.800781 226.15625 235 C 226.253906 246.5 226.953125 251.53125 228.398438 251.15625 C 228.953125 251.015625 229.753906 251.699219 230.199219 252.699219 C 230.773438 253.992188 230.859375 253.75 230.5 251.851562 C 230.085938 249.648438 230.425781 249.121094 232.5 248.75 C 234.300781 248.425781 235 248.746094 235 249.898438 C 235 250.800781 235.460938 252.15625 236.050781 253 C 236.890625 254.199219 236.980469 254.050781 236.5 252.25 C 236.152344 250.949219 236.34375 250 236.949219 250 C 237.65625 250 237.789062 246.449219 237.351562 239.148438 C 236.78125 229.648438 236.980469 227.378906 238.949219 220.898438 C 240.195312 216.800781 242.492188 211.09375 244.101562 208.101562 C 245.710938 205.101562 246.753906 202.320312 246.449219 201.851562 C 246.148438 201.386719 246.648438 201 247.550781 201 C 248.777344 201 249.007812 201.449219 248.449219 202.75 C 248.050781 203.683594 247.488281 205.550781 247.25 206.75 C 247.011719 207.949219 246.191406 209 245.5 209 C 243.4375 209 242.683594 212.601562 242.640625 222.699219 C 242.601562 231.5 242.5 231.925781 240.300781 232.476562 C 237.300781 233.226562 237.050781 237 240 237 C 241.53125 237 242 237.699219 242 240 C 242 242 241.5 243 240.5 243 C 238.527344 243 238.558594 243.5 240.984375 251.199219 L 243 257.601562 L 246.5 257.199219 C 249.800781 256.824219 250 256.976562 250 259.898438 C 250 262.199219 249.546875 263.027344 248.25 263.101562 C 247.25 263.15625 247.035156 263.414062 247.75 263.699219 C 248.421875 263.96875 249 265.148438 249 266.25 C 249 267.359375 250.878906 270.75 253.101562 273.648438 C 256.933594 278.648438 257.488281 279 261.601562 279 C 265.800781 279 266 279.132812 266 281.949219 C 266 284.148438 265.480469 284.976562 263.949219 285.199219 C 261.949219 285.492188 261.945312 285.550781 263.75 287.5 C 264.769531 288.601562 265.980469 290.398438 266.445312 291.5 C 267.363281 293.675781 267.828125 292.5 270.007812 282.5 C 270.507812 280.199219 271.03125 277.851562 271.199219 277.148438 C 271.367188 276.460938 267.699219 272.390625 263 268.050781 L 254.5 260.199219 L 254.699219 251.601562 C 254.898438 243.101562 254.871094 243 252.449219 243 C 250.40625 243 250 242.5 250 240 C 250 238.300781 250.433594 237 251 237 C 251.601562 237 252 236.601562 252 236 C 252 235.433594 250.699219 235 249 235 C 246.300781 235 246 234.699219 246 232 C 246 229.601562 246.410156 229 248.050781 229 C 249.394531 229 250.449219 228 251.109375 226.101562 C 252.367188 222.484375 256.699219 220.566406 262 221.269531 C 264.300781 221.574219 265.765625 221.417969 265.449219 220.898438 C 265.148438 220.402344 263.351562 220 261.449219 220 C 258.25 220 258 219.78125 258 217 C 258 214.699219 258.46875 214 260 214 C 262.898438 214 266 210.953125 266 208.101562 C 266 205.738281 266.101562 205.710938 272.199219 206.410156 C 280.613281 207.375 281.753906 208.699219 282.167969 218 C 282.480469 225.101562 282.378906 225.515625 280.25 225.800781 C 278.140625 226.082031 278 226.601562 278 234.101562 C 278 239.199219 278.363281 241.882812 279 241.5 C 279.554688 241.167969 280.011719 239.699219 280.023438 238.199219 C 280.058594 234.601562 283.300781 230.839844 285.699219 231.617188 C 286.898438 232.003906 287.082031 231.898438 286.25 231.300781 C 285.332031 230.640625 285.800781 229.628906 288 227.5 C 290.441406 225.140625 291 223.800781 291 220.300781 C 291 216.699219 290.675781 216 289 216 C 287.46875 216 287 215.300781 287 213 C 287 211 287.5 210 288.5 210 C 290.199219 210 290.5625 207.449219 289 206.484375 C 287.425781 205.515625 287.832031 195.300781 289.515625 193.601562 C 290.308594 192.800781 291 191.585938 291 191 C 291 189.503906 297.027344 189.800781 297.125 191.300781 C 297.183594 192.261719 297.300781 192.25 297.699219 191.25 C 297.972656 190.566406 299.449219 190 300.949219 190 C 303.667969 190 303.714844 190.101562 304.84375 198.800781 C 306.324219 210.199219 306.351562 210 303.5 210 L 301 210 L 301 220.398438 C 301 228.398438 300.652344 231.085938 299.5 232.039062 C 297.800781 233.445312 297.441406 237 299 237 C 299.5625 237 300 236.300781 300 235.398438 C 300 234.257812 300.601562 233.957031 302.101562 234.351562 C 303.300781 234.664062 303.945312 234.644531 303.605469 234.300781 C 302.640625 233.324219 305.101562 230.933594 306.300781 231.679688 C 306.910156 232.058594 307.027344 231.851562 306.601562 231.148438 C 306.214844 230.515625 305.25 230 304.449219 230 C 303.53125 230 303 228.898438 303 227 C 303 224.699219 303.46875 224 305 224 C 306.101562 224 307 223.550781 307 223 C 307 222.46875 307.699219 222 308.5 222 C 309.527344 222 310 220.898438 310 218.5 C 310 216.601562 310.480469 215 311.050781 215 C 311.769531 215 311.773438 214.398438 311.070312 213.101562 C 309.070312 209.398438 309.785156 204.128906 312.703125 201.101562 C 315.230469 198.480469 316.148438 198.195312 322.25 198.148438 L 329 198.101562 L 329 200.949219 C 329 202.550781 328.539062 203.953125 327.949219 204.148438 C 327.300781 204.367188 327.15625 206.101562 327.570312 208.699219 C 328.257812 213 330 214.648438 330 211 C 330 209.398438 330.699219 209 333.5 209 C 336.5 209 337 209.34375 337 211.398438 C 337 212.699219 337.6875 214.351562 338.5 215 C 339.300781 215.640625 340 216.851562 340 217.601562 C 340 218.519531 341.199219 219 343.5 219 C 345.898438 219 347 219.472656 347 220.5 C 347 221.300781 347.699219 222 348.5 222 C 349.300781 222 350 222.511719 350 223.101562 C 350 224.398438 352.46875 227 353.699219 227 C 355.121094 227 354.265625 216.898438 352.515625 213 C 351.035156 209.699219 350.613281 209.433594 347.449219 209.800781 C 344.148438 210.183594 344 210.066406 344 207.101562 C 344 205 344.484375 204 345.5 204 C 346.300781 204 347 203.53125 347 203 C 347 202.398438 346.601562 202 346 202 C 345.417969 202 345 201.5 345 200.800781 C 345 198.28125 340.699219 195 337.398438 195 C 334.398438 195 334.074219 194.703125 333.800781 191.75 C 333.527344 188.804688 333.148438 188.472656 329.75 188.199219 C 326.75 187.960938 326 187.5 326 185.898438 C 326 184.398438 325.5 184.050781 324 184.5 C 322.890625 184.832031 320 184.8125 317.5 184.449219 C 313.398438 183.859375 313 183.554688 313 181.050781 C 313 178.492188 312.601562 178.21875 307.300781 177.144531 C 299.667969 175.601562 292.699219 175.808594 285 177.8125 C 279.5 179.238281 278.445312 179.859375 278.148438 181.851562 C 277.839844 183.945312 277.398438 184.148438 274.101562 183.71875 C 269.898438 183.175781 267 184.351562 267 186.601562 C 267 187.347656 266.300781 188 265.5 188 C 264.699219 188 264 188.652344 264 189.398438 C 264 190.164062 262.5 191.132812 260.699219 191.53125 C 256.300781 192.511719 255 193.78125 255 197.101562 C 255 200.058594 253.5 200.648438 247.5 200.042969 C 244.601562 199.75 244.453125 199.273438 246.496094 196.800781 C 247.53125 195.550781 246.800781 196.101562 244.898438 198 C 242.898438 200 241.722656 201.949219 242.148438 202.550781 C 242.613281 203.195312 241.898438 203.582031 240.300781 203.554688 C 237.800781 203.511719 235.539062 201 238 201 C 238.601562 201 238.828125 200.546875 238.5 200 C 238.148438 199.417969 238.398438 199 239.101562 199 C 239.800781 199 240.050781 198.75 239.699219 198.398438 C 238.992188 197.695312 242.152344 193 247.371094 187 C 249.105469 185.003906 248.296875 185.648438 245.550781 188.449219 C 242.804688 191.25 240.890625 192.742188 241.25 191.800781 C 241.976562 189.898438 240.496094 189.34375 239.390625 191.101562 C 238.996094 191.730469 239.300781 192.585938 240.101562 193.101562 C 241.136719 193.765625 240.898438 194 239.199219 194 C 236.5 194 236.402344 193.320312 238.726562 190.699219 C 240.058594 189.199219 240.1875 188.585938 239.25 188.25 C 238.5625 188.003906 238 186.5 238 184.898438 C 238 182.386719 238.398438 182 241 182 C 242.699219 182 244 182.519531 244 183.199219 C 244 183.863281 245.300781 183.144531 246.898438 181.601562 C 248.5 180.054688 250.292969 179.089844 250.898438 179.449219 C 251.5 179.804688 251.878906 179.691406 251.738281 179.199219 C 251.460938 178.257812 257.699219 171.980469 258.898438 171.992188 C 259.230469 171.996094 261.851562 170.992188 264.75 169.75 L 270 167.5 L 270 162.75 C 270 158.148438 270.09375 158 273 158 C 275.742188 158 276 158.300781 276 161.5 Z M 295.75 344.648438 C 294.816406 344.890625 292.949219 344.914062 291.75 344.699219 C 290.511719 344.480469 291.300781 344.277344 293.5 344.25 C 295.699219 344.222656 296.714844 344.402344 295.75 344.648438 Z M 320.75 347.648438 C 319.75 347.90625 319 348.507812 319 349.050781 C 319 349.621094 318.601562 350 318 350 C 317.46875 350 317 349.300781 317 348.5 C 317 347.519531 317.949219 347.035156 319.75 347.101562 C 321.449219 347.160156 321.832031 347.371094 320.75 347.648438 Z M 268.101562 356 C 268.699219 356 268.851562 356.398438 268.480469 357 C 267.488281 358.601562 266 357.101562 266 354.5 C 266 353.199219 265.457031 351.980469 264.75 351.699219 C 263.832031 351.332031 263.898438 350.921875 265 350.148438 C 266.21875 349.296875 266.558594 349.75 266.800781 352.550781 C 266.964844 354.449219 267.550781 356 268.101562 356 Z M 271.148438 363.75 C 272.351562 365.304688 272.300781 365.34375 270.699219 364.101562 C 269 362.777344 268.519531 362 269.398438 362 C 269.628906 362 270.378906 362.75 271.148438 363.75 Z M 314.851562 372.398438 L 309.5 377.5 L 314.25 372.449219 C 316.976562 369.550781 319.0625 366.355469 319.148438 364.949219 L 319.300781 362.5 L 319.75 364.898438 C 320.101562 366.785156 319.050781 368.394531 314.851562 372.398438 Z M 278.5 367.25 L 281.5 367.699219 L 278.351562 367.851562 C 276.449219 367.941406 274.664062 367.304688 273.851562 366.25 C 272.691406 364.75 272.714844 364.664062 274 365.648438 C 274.851562 366.300781 276.800781 366.996094 278.5 367.25 Z M 303.75 377.75 C 301.148438 377.941406 296.851562 377.941406 294.25 377.75 C 291.648438 377.558594 293.800781 377.398438 299 377.398438 C 304.199219 377.398438 306.351562 377.558594 303.75 377.75 Z M 285.851562 394.800781 C 285.984375 396.699219 285.734375 399.71875 285.300781 401.398438 C 284.558594 404.273438 284.457031 404.101562 283.898438 399 L 283.300781 393.5 L 283.148438 400.148438 C 283.019531 405.851562 282.714844 406.871094 281 407.300781 C 279.152344 407.761719 278.988281 407.25 278.851562 400.648438 C 278.71875 394.449219 278.605469 394.03125 278 397.5 L 277.300781 401.5 L 277.160156 396.800781 C 277.015625 391.839844 277.601562 391.300781 283.101562 391.300781 C 285.242188 391.300781 285.636719 391.800781 285.851562 394.800781 Z M 417.277344 394.101562 C 417.90625 395.085938 417.972656 397.199219 417.449219 399.601562 L 416.601562 403.5 L 415.949219 398.5 C 415.3125 393.609375 415.296875 393.648438 415.148438 400.449219 C 415.011719 406.949219 415.101562 407.273438 416.550781 405.449219 C 417.425781 404.351562 417.839844 404.046875 417.5 404.75 C 417.113281 405.554688 417.449219 405.785156 418.449219 405.398438 C 419.351562 405.050781 419.832031 404.527344 419.601562 404.148438 C 419.378906 403.785156 421.101562 403.5 423.5 403.5 C 425.898438 403.5 427.621094 403.675781 427.398438 403.898438 C 427.167969 404.132812 427.648438 404.78125 428.550781 405.449219 C 429.890625 406.441406 429.800781 406.867188 427.898438 408.550781 C 426.699219 409.613281 425.996094 409.976562 426.351562 409.351562 C 426.734375 408.671875 426.101562 407.960938 424.800781 407.609375 C 421.398438 406.699219 419.070312 407.070312 422 408.058594 C 423.589844 408.59375 422.5 408.683594 419 408.300781 C 416 407.972656 412.933594 407.699219 412.25 407.699219 C 411.386719 407.699219 410.953125 405.5 410.851562 400.601562 C 410.710938 394 410.652344 393.816406 410 398 L 409.300781 402.5 L 409.148438 398.300781 C 409.046875 395.398438 409.496094 393.824219 410.601562 393.207031 C 413 391.871094 416.117188 392.285156 417.277344 394.101562 Z M 229.851562 396.75 L 229.699219 400.5 L 229 397 C 228.371094 393.847656 228.285156 394.050781 228.148438 399.050781 C 228.023438 403.75 227.710938 404.621094 226.101562 404.75 C 224.472656 404.878906 224.148438 404.050781 223.851562 398.949219 L 223.5 393 L 226.75 393 C 229.871094 393 229.992188 393.148438 229.851562 396.75 Z M 244.300781 394.300781 C 244.578125 395.023438 244.578125 396.800781 244.300781 398.300781 C 243.871094 400.601562 243.300781 401 240.398438 401 C 238.5 401 237 400.625 237 400.148438 C 237 399.667969 238.300781 399.496094 240 399.75 C 242.601562 400.140625 242.988281 399.886719 242.898438 397.851562 C 242.828125 396.148438 242.667969 395.996094 242.320312 397.300781 C 241.515625 400.328125 238.246094 399.398438 237.742188 396 C 237.335938 393.230469 237.550781 393 240.550781 393 C 242.351562 393 244.023438 393.578125 244.300781 394.300781 Z M 185.851562 395.699219 C 187.851562 396.632812 189.589844 397.445312 189.699219 397.5 C 189.808594 397.554688 190.148438 399.148438 190.449219 401.050781 L 191 404.5 L 189.507812 401.800781 C 187.285156 397.785156 186.949219 398.398438 188.789062 403.101562 C 190.164062 406.601562 190.195312 407.324219 189 408.058594 C 187 409.285156 186 409.234375 186 407.898438 C 186 407.355469 185.5 407.21875 184.898438 407.601562 C 184.148438 408.078125 184.007812 407.648438 184.449219 406.25 C 184.800781 405.148438 184.613281 403.898438 184.050781 403.550781 C 183.441406 403.171875 183.253906 403.550781 183.601562 404.449219 C 184.101562 405.746094 183.5 405.683594 179.898438 404.050781 C 173.398438 401.105469 171.125 401.398438 170.230469 405.300781 L 169.5 408.5 L 168.898438 404 L 168.300781 399.5 L 168.148438 404.148438 C 168.03125 407.851562 167.589844 408.902344 166 409.300781 C 164.265625 409.734375 163.988281 409.25 163.898438 405.648438 C 163.8125 402.050781 163.695312 401.832031 163 404 C 162.410156 405.839844 162.171875 404.851562 162.101562 400.25 L 162 394 L 172.101562 394 C 179.398438 394 183.210938 394.472656 185.851562 395.699219 Z M 364.546875 397.699219 C 364.007812 402.117188 362.800781 403 357.300781 403 C 353.800781 403 352.976562 403.375 352.351562 405.25 L 351.601562 407.5 L 350.898438 405 L 350.199219 402.5 L 350.101562 405.25 C 350.023438 407.351562 349.527344 408 348 408 C 346.472656 408 345.988281 407.351562 345.949219 405.25 C 345.90625 402.851562 345.785156 402.753906 345 404.5 C 344.234375 406.199219 344.09375 406.238281 344.050781 404.75 C 344.011719 403.402344 343.101562 403 340.101562 403 C 334 403 333 402.28125 333 397.898438 L 333 394 L 365 394 Z M 236.699219 397.199219 C 236.382812 398.019531 236.164062 397.800781 236.101562 396.601562 C 236.046875 395.601562 236.285156 394.984375 236.601562 395.300781 C 236.921875 395.621094 236.96875 396.5 236.699219 397.199219 Z M 315.101562 399.25 C 315.152344 400.449219 315.152344 401.851562 315.101562 402.25 C 315.046875 402.644531 315.898438 403 316.898438 403 C 318.230469 403 318.925781 403.898438 319.222656 406 C 319.691406 409.300781 317.695312 410.804688 315.398438 408.886719 C 314.699219 408.300781 313.5 408.007812 312.800781 408.25 C 312.058594 408.507812 310.75 408.3125 309.75 407.800781 C 308.550781 407.183594 308 407.246094 308 408 C 308 408.617188 307.300781 408.398438 306.398438 407.5 C 304.953125 406.050781 305 405.730469 306.898438 404.101562 C 308.101562 403.070312 309 401.398438 309 400.199219 C 309 398.296875 309.5 398.007812 314.300781 397.128906 C 314.671875 397.058594 315.046875 398.050781 315.101562 399.25 Z M 307.699219 401.199219 C 307.382812 402.019531 307.164062 401.800781 307.101562 400.601562 C 307.046875 399.601562 307.285156 398.984375 307.601562 399.300781 C 307.921875 399.621094 307.96875 400.5 307.699219 401.199219 Z M 405.800781 403.699219 C 406.253906 404.4375 406.425781 406.300781 406.199219 408 C 405.839844 410.699219 405.535156 410.929688 403.148438 410.300781 C 401.703125 409.917969 399.25 409.667969 397.75 409.75 C 396.25 409.832031 395 409.46875 395 408.949219 C 395 408.40625 394.550781 408 393.949219 408 C 393.351562 408 393.113281 408.34375 393.398438 408.800781 C 393.675781 409.242188 392.601562 409.421875 391 409.199219 C 389 408.925781 388.269531 408.367188 388.648438 407.398438 C 388.964844 406.601562 389.605469 406 390.148438 406 C 390.71875 406 390.859375 405.601562 390.5 405 C 390.148438 404.410156 390.601562 404.269531 391.601562 404.648438 C 392.5 404.992188 393.039062 404.878906 392.75 404.398438 C 392.4375 403.890625 394.101562 403.652344 396.601562 403.851562 C 399 404.039062 401 403.746094 401 403.199219 C 401 401.796875 404.878906 402.199219 405.800781 403.699219 Z M 295.300781 404.648438 C 294.898438 405.75 295.066406 406.082031 295.800781 405.648438 C 296.398438 405.296875 297.144531 405.410156 297.441406 405.898438 C 297.949219 406.75 296.601562 407.367188 291.5 408.613281 C 289.800781 409.027344 289.726562 408.933594 291 408 C 292.191406 407.125 291.75 407.011719 288.851562 407.449219 C 286.25 407.84375 285.054688 407.613281 284.699219 406.648438 C 284.441406 405.949219 284.730469 405.261719 285.300781 405.21875 C 286.398438 405.140625 295.210938 403.34375 295.699219 403.101562 C 295.808594 403.046875 295.628906 403.75 295.300781 404.648438 Z M 377.078125 407.199219 C 375.921875 408.5 371.21875 409.152344 370.574219 408.101562 C 370.160156 407.429688 370.601562 407.234375 371.699219 407.601562 C 373.101562 408.066406 373.210938 407.988281 372.199219 407.246094 C 370.558594 406.042969 367.5 406.699219 365.917969 408.601562 C 364.28125 410.5625 363 410.300781 363 408 C 363 405.484375 364.5 404.628906 370 404.007812 C 373.199219 403.648438 374.960938 403.933594 376.101562 405 C 377 405.84375 377.429688 406.804688 377.078125 407.199219 Z M 211 405.050781 C 211 405.636719 211.550781 405.769531 212.25 405.351562 C 213.132812 404.820312 213.101562 405.101562 212.148438 406.300781 C 211.15625 407.554688 210.300781 407.722656 208.898438 406.949219 C 207.699219 406.285156 206.335938 406.242188 205.199219 406.828125 C 203.300781 407.8125 201 407.355469 201 406 C 201 404.988281 203.5 404.300781 207.800781 404.128906 C 209.601562 404.054688 211 404.460938 211 405.050781 Z M 264.523438 405.101562 C 264.90625 405.722656 266.351562 405.9375 267.851562 405.601562 C 270.449219 405.011719 270.460938 405.023438 268.300781 406.265625 C 265.398438 407.9375 258 407.3125 258 405.398438 C 258 403.699219 263.507812 403.445312 264.523438 405.101562 Z M 242 405.398438 C 242 405.621094 241.101562 406.023438 240 406.300781 C 238.898438 406.574219 238 406.394531 238 405.898438 C 238 405.40625 238.898438 405 240 405 C 241.101562 405 242 405.179688 242 405.398438 "/>
<path style=" stroke:none;fill-rule:nonzero;fill:rgb(0%,0%,0%);fill-opacity:1;" d="M 252.898438 181.699219 C 251.65625 183.300781 251.695312 183.351562 253.25 182.148438 C 254.25 181.378906 255 180.628906 255 180.398438 C 255 179.519531 254.222656 180 252.898438 181.699219 "/>
<path style=" stroke:none;fill-rule:nonzero;fill:rgb(0%,0%,0%);fill-opacity:1;" d="M 346 186.5 C 348.945312 189.5 351.628906 192 351.898438 192 C 352.171875 192 349.945312 189.5 347 186.5 C 344.054688 183.5 341.371094 181 341.101562 181 C 340.828125 181 343.054688 183.5 346 186.5 "/>
<path style=" stroke:none;fill-rule:nonzero;fill:rgb(0%,0%,0%);fill-opacity:1;" d="M 256.898438 185.699219 C 255.65625 187.300781 255.695312 187.351562 257.25 186.148438 C 258.25 185.378906 259 184.628906 259 184.398438 C 259 183.519531 258.222656 184 256.898438 185.699219 "/>
<path style=" stroke:none;fill-rule:nonzero;fill:rgb(0%,0%,0%);fill-opacity:1;" d="M 250.449219 191.25 L 247.5 194.5 L 250.800781 191.519531 C 253.800781 188.8125 254.46875 188 253.699219 188 C 253.535156 188 252.085938 189.449219 250.449219 191.25 "/>
<path style=" stroke:none;fill-rule:nonzero;fill:rgb(0%,0%,0%);fill-opacity:1;" d="M 347.519531 196.398438 C 352.761719 203.5 355.300781 208.925781 355.511719 213.5 C 355.617188 215.722656 356.253906 219.898438 356.949219 222.898438 C 357.777344 226.480469 357.980469 231.699219 357.550781 238.398438 C 357.1875 244 356.765625 250.726562 356.601562 253.5 C 356.34375 257.800781 356.453125 258.148438 357.398438 256 C 358.015625 254.601562 359.511719 253.367188 360.800781 253.199219 C 362.855469 252.933594 363.039062 253.199219 362.550781 255.699219 C 362.039062 258.300781 362.070312 258.335938 363 256.199219 C 363.566406 254.898438 364.390625 254.140625 364.898438 254.457031 C 368.316406 256.570312 370.90625 239.101562 369.136719 225.898438 C 367.835938 216.199219 365.1875 207 363.699219 207 C 363.21875 207 363.058594 208.050781 363.351562 209.25 C 363.886719 211.449219 363.867188 211.457031 362.449219 209.550781 C 361.632812 208.449219 361 207.1875 361 206.648438 C 361 206.078125 360.761719 205.921875 360.398438 206.25 C 360.074219 206.550781 360.34375 207.800781 361 209 C 361.917969 210.683594 361.90625 211.75 360.949219 213.550781 C 360.257812 214.851562 359.320312 215.675781 358.851562 215.398438 C 358.363281 215.113281 358.277344 214.449219 358.648438 213.851562 C 359.019531 213.25 358.871094 212.519531 358.300781 212.148438 C 357.757812 211.796875 355.796875 208.648438 354 205.25 C 352.203125 201.851562 349.148438 197.289062 347.300781 195.25 L 343.898438 191.5 Z M 362.699219 216.199219 C 362.382812 217.019531 362.164062 216.800781 362.101562 215.601562 C 362.046875 214.601562 362.285156 213.984375 362.601562 214.300781 C 362.921875 214.621094 362.96875 215.5 362.699219 216.199219 "/>
<path style=" stroke:none;fill-rule:nonzero;fill:rgb(0%,0%,0%);fill-opacity:1;" d="M 352 193.398438 C 352 193.628906 352.75 194.378906 353.75 195.148438 C 355.304688 196.351562 355.34375 196.300781 354.101562 194.699219 C 352.777344 193 352 192.519531 352 193.398438 "/>
<path style=" stroke:none;fill-rule:nonzero;fill:rgb(0%,0%,0%);fill-opacity:1;" d="M 357.101562 201.050781 C 358.242188 203.25 359.429688 204.871094 359.699219 204.601562 C 360.210938 204.089844 356.199219 197 355.398438 197 C 355.183594 197 355.960938 198.851562 357.101562 201.050781 "/>
<path style=" stroke:none;fill-rule:nonzero;fill:rgb(0%,0%,0%);fill-opacity:1;" d="M 362.5 205 C 362.859375 205.601562 363.28125 206 363.550781 206 C 363.820312 206 364 205.601562 364 205 C 364 204.429688 363.550781 204 362.949219 204 C 362.351562 204 362.15625 204.429688 362.5 205 "/>
<path style=" stroke:none;fill-rule:nonzero;fill:rgb(0%,0%,0%);fill-opacity:1;" d="M 294.050781 216 C 293.71875 226.898438 293.664062 227.160156 293 221 L 292.300781 214.5 L 292.300781 221.300781 C 292.300781 227.699219 292.105469 228.304688 289 231.550781 C 286.609375 234.050781 285.355469 234.710938 284.449219 233.949219 C 283.550781 233.195312 283.019531 233.195312 282.550781 233.949219 C 282.179688 234.550781 282.242188 234.890625 282.699219 234.742188 C 283.523438 234.480469 283.886719 235.898438 283.402344 237.5 C 283.238281 238.046875 282.917969 243.148438 282.699219 248.75 L 282.300781 259 L 286.898438 263.25 C 289.398438 265.558594 292.984375 268.730469 294.75 270.199219 C 296.75 271.863281 297.980469 273.785156 297.949219 275.199219 C 297.902344 277.398438 297.863281 277.410156 297.050781 275.398438 C 296.160156 273.199219 279.300781 257 277.898438 257 C 277.398438 257 277 253.398438 277 248.898438 C 277 238.753906 275.097656 239.101562 274.804688 249.300781 C 274.679688 253.773438 274.371094 251.199219 274 242.5 C 273.507812 231 273.328125 229.839844 273 236 L 272.601562 243.5 L 271.398438 229.5 L 271.199219 239 C 271.089844 244.199219 270.707031 250.898438 270.351562 253.800781 C 269.773438 258.5 269.519531 258.941406 268.101562 257.699219 C 267.1875 256.898438 265.75 256.042969 264.75 255.699219 C 263.75 255.355469 263 254.050781 263 252.648438 C 263 251.335938 262.652344 248.648438 262.25 246.851562 L 261.5 243.5 L 260.898438 247.5 C 260.449219 250.507812 260.261719 249.449219 260.148438 243.25 C 260.0625 238.550781 259.570312 235 259 235 C 258.429688 235 257.957031 235.75 257.898438 236.75 C 257.84375 237.703125 257.710938 241 257.601562 244 C 257.492188 247 257.015625 251.636719 256.550781 254.199219 L 255.699219 258.898438 L 269.101562 272.5 C 276.488281 280 282.769531 286.863281 283.101562 287.800781 C 283.429688 288.730469 283.472656 296.601562 283.199219 305.199219 L 282.699219 320.898438 L 285.101562 321.398438 C 286.425781 321.675781 291.300781 321.8125 296 321.699219 L 304.5 321.5 L 305 268.101562 L 297.851562 260.800781 C 293.933594 256.800781 290.316406 253.613281 289.851562 253.75 C 289.382812 253.886719 289 250.101562 289 245.300781 C 289 234.847656 287.285156 235 286.753906 245.5 L 286.398438 252.5 L 285.601562 237.5 L 284.398438 252.5 L 284.199219 244.800781 C 284.089844 240.5 284.441406 236.835938 285 236.5 C 285.582031 236.148438 286 236.398438 286 237.101562 C 286 237.765625 287.199219 237.234375 288.699219 235.898438 C 290.199219 234.566406 290.894531 234.167969 290.261719 235 C 288.820312 236.898438 290.050781 239.15625 291.898438 238.007812 C 292.882812 237.394531 292.945312 236.75 292.148438 235.351562 C 291.308594 233.871094 291.679688 232.898438 294 230.5 C 296.820312 227.582031 296.902344 227.199219 297.050781 216.699219 C 297.132812 210.800781 296.929688 205.628906 296.601562 205.300781 C 296.269531 204.972656 296 209.898438 296 216.199219 C 296 226.101562 295.75 227.925781 294.199219 229.332031 C 291.398438 231.867188 290.410156 231.292969 292.9375 228.601562 C 294.941406 226.46875 295.074219 225.5 294.75 215.398438 L 294.398438 204.5 Z M 290.933594 231.699219 C 290.914062 232.144531 289.699219 233.34375 288.199219 234.398438 L 285.5 236.300781 L 287.933594 233.601562 C 290.460938 230.800781 290.988281 230.464844 290.933594 231.699219 "/>
<path style=" stroke:none;fill-rule:nonzero;fill:rgb(0%,0%,0%);fill-opacity:1;" d="M 292.199219 210 C 292.199219 211.398438 292.421875 211.949219 292.699219 211.25 C 292.980469 210.550781 292.980469 209.449219 292.699219 208.75 C 292.421875 208.050781 292.199219 208.601562 292.199219 210 "/>
<path style=" stroke:none;fill-rule:nonzero;fill:rgb(0%,0%,0%);fill-opacity:1;" d="M 299.398438 218.5 C 299.398438 224.601562 299.554688 226.914062 299.75 223.699219 C 299.941406 220.5 299.941406 215.570312 299.75 212.699219 C 299.554688 209.816406 299.398438 212.398438 299.398438 218.5 "/>
<path style=" stroke:none;fill-rule:nonzero;fill:rgb(0%,0%,0%);fill-opacity:1;" d="M 317.050781 219 L 316.699219 225.5 L 315.199219 214.5 L 315.300781 220.300781 L 315.398438 226.101562 L 307.449219 234.199219 C 303.03125 238.699219 300.167969 241.945312 301 241.5 C 301.953125 240.992188 301.796875 241.5 300.566406 242.898438 C 298.453125 245.300781 296.976562 245.921875 298.90625 243.601562 C 300.132812 242.121094 299.398438 241.3125 297 241.488281 C 296.199219 241.546875 295.710938 242.277344 295.949219 243.050781 C 296.199219 243.855469 296.445312 247.550781 296.5 251.351562 L 296.601562 258.199219 L 302.699219 264.101562 C 307.699219 268.9375 308.546875 270.207031 307.398438 271.148438 C 306.257812 272.089844 306.046875 276.800781 306.25 296.898438 L 306.5 321.5 L 308.800781 321.851562 C 310.101562 322.046875 311.796875 321.613281 312.699219 320.851562 C 314.109375 319.660156 314.214844 316.949219 313.601562 298.25 C 313.171875 285.25 313.25 277 313.800781 277 C 314.617188 277 318.871094 272.800781 330.40625 260.601562 C 333.863281 256.941406 333.996094 256.550781 333.851562 250.148438 C 333.769531 246.515625 333.382812 240.101562 333 236 C 332.335938 228.894531 332.292969 229.148438 332.148438 240.851562 C 332.035156 250.25 331.703125 253.09375 330.75 252.75 C 330.007812 252.484375 329.257812 249.699219 328.898438 245.898438 L 328.300781 239.5 L 328.148438 246.050781 C 328.011719 252.050781 327.726562 252.835938 324.75 255.398438 C 322.949219 256.949219 321.1875 258.9375 320.800781 259.851562 C 320.382812 260.835938 320.078125 259.949219 320.050781 257.648438 C 320.011719 254.648438 319.667969 253.921875 318.5 254.351562 C 317.601562 254.679688 317 254.320312 317 253.449219 C 317 252.648438 316.597656 252 316.101562 252 C 314.839844 252 314 254.601562 314 258.5 C 314 260.398438 313.558594 262.164062 313 262.5 C 312.398438 262.859375 312 262.738281 312 262.199219 C 312 260.300781 304.699219 253 302.800781 253 C 301.699219 253 301.175781 253.441406 301.550781 254.050781 C 301.921875 254.648438 301.300781 254.542969 300.101562 253.800781 C 298.898438 253.058594 298.019531 251.644531 298.050781 250.5 C 298.09375 248.683594 298.179688 248.699219 298.980469 250.699219 C 300.058594 253.398438 300.519531 253.546875 300.566406 251.199219 C 300.585938 250.277344 300.96875 248.398438 301.398438 247.101562 C 302.03125 245.199219 301.917969 244.867188 300.851562 245.5 C 300.109375 245.9375 304.109375 241.601562 309.699219 235.898438 L 319.898438 225.5 L 320.101562 219.75 C 320.210938 216.550781 320.011719 213.710938 319.648438 213.351562 C 319.296875 212.996094 319 215.648438 319 219.148438 L 319 225.601562 L 311.75 232.800781 C 307.75 236.773438 304.050781 240 303.5 240 C 302.953125 240 306.027344 236.449219 310.300781 232.148438 L 318.101562 224.300781 L 317.75 218.398438 L 317.398438 212.5 L 317.050781 219 "/>
<path style=" stroke:none;fill-rule:nonzero;fill:rgb(0%,0%,0%);fill-opacity:1;" d="M 322.300781 221.5 C 322.300781 225.398438 322.476562 226.839844 322.699219 224.75 C 322.925781 222.648438 322.925781 219.570312 322.699219 217.75 C 322.476562 215.9375 322.300781 217.601562 322.300781 221.5 "/>
<path style=" stroke:none;fill-rule:nonzero;fill:rgb(0%,0%,0%);fill-opacity:1;" d="M 272.5 222 C 272.859375 222.601562 273.28125 223 273.550781 223 C 273.820312 223 274 222.601562 274 222 C 274 221.429688 273.550781 221 272.949219 221 C 272.351562 221 272.15625 221.429688 272.5 222 "/>
<path style=" stroke:none;fill-rule:nonzero;fill:rgb(0%,0%,0%);fill-opacity:1;" d="M 288.5 228 C 288.15625 228.570312 288.351562 229 288.949219 229 C 289.550781 229 290 228.570312 290 228 C 290 227.398438 289.820312 227 289.550781 227 C 289.28125 227 288.859375 227.398438 288.5 228 "/>
<path style=" stroke:none;fill-rule:nonzero;fill:rgb(0%,0%,0%);fill-opacity:1;" d="M 330.1875 239.800781 C 330.382812 252.828125 330.78125 251.300781 331.238281 235.800781 C 331.382812 231 331.160156 227 330.75 227 C 330.339844 227 330.085938 232.800781 330.1875 239.800781 "/>
<path style=" stroke:none;fill-rule:nonzero;fill:rgb(0%,0%,0%);fill-opacity:1;" d="M 267.886719 233.5 C 267.273438 237.5 267.464844 238.835938 268.5 237.800781 C 268.828125 237.472656 268.964844 235.449219 268.800781 233.351562 L 268.5 229.5 L 267.886719 233.5 "/>
<path style=" stroke:none;fill-rule:nonzero;fill:rgb(0%,0%,0%);fill-opacity:1;" d="M 325 232 C 325 232.570312 324.550781 233 323.949219 233 C 323.351562 233 322.300781 233.601562 321.5 234.398438 C 319.480469 236.421875 319.699219 238 322 238 C 323.421875 238 324.015625 238.648438 324.050781 240.25 C 324.089844 242.101562 324.359375 241.898438 325.578125 239.101562 C 327.273438 235.199219 327.492188 231 326 231 C 325.398438 231 325 231.398438 325 232 "/>
<path style=" stroke:none;fill-rule:nonzero;fill:rgb(0%,0%,0%);fill-opacity:1;" d="M 354.597656 237.601562 C 353.644531 240.101562 353.882812 241 355.5 241 C 356.460938 241 357 240.101562 357 238.5 C 357 235.699219 355.53125 235.148438 354.597656 237.601562 "/>
<path style=" stroke:none;fill-rule:nonzero;fill:rgb(0%,0%,0%);fill-opacity:1;" d="M 261 239.5 C 261 240.300781 261.1875 241 261.398438 241 C 261.613281 241 262.058594 240.300781 262.351562 239.5 C 262.644531 238.699219 262.457031 238 261.949219 238 C 261.441406 238 261 238.699219 261 239.5 "/>
<path style=" stroke:none;fill-rule:nonzero;fill:rgb(0%,0%,0%);fill-opacity:1;" d="M 337.148438 241.5 C 337.371094 243.398438 338.160156 244.621094 339.300781 244.835938 C 341.730469 245.289062 341.5 242.742188 338.898438 240.394531 C 336.800781 238.5 336.800781 238.5 337.148438 241.5 "/>
<path style=" stroke:none;fill-rule:nonzero;fill:rgb(0%,0%,0%);fill-opacity:1;" d="M 344.199219 247.75 L 344.398438 256.5 L 345.601562 239.5 L 345.800781 248.050781 C 346 256.550781 345.980469 256.617188 342.75 259.550781 C 340.351562 261.730469 340.074219 261.847656 341.699219 260 C 343.523438 257.929688 343.753906 256.898438 343.050781 254 C 342.589844 252.101562 342.152344 251.1875 342.09375 252 C 341.984375 253.578125 331.398438 264.691406 329.5 265.222656 C 328.898438 265.386719 328.578125 265.738281 328.699219 266.101562 C 328.808594 266.429688 325.75 269.804688 321.949219 273.550781 L 315 280.398438 L 315 300.101562 C 315 321.300781 315.300781 322.554688 320.199219 321.835938 C 322.488281 321.503906 322.503906 321.398438 323 303.800781 L 323.5 286.101562 L 336.75 272.699219 L 350 259.300781 L 349.851562 250.398438 C 349.714844 242.300781 349.644531 242.011719 349.089844 247.199219 C 348.179688 255.683594 347 255.398438 347 246.699219 C 347 240.5 346.707031 239 345.5 239 C 344.265625 239 344.035156 240.550781 344.199219 247.75 "/>
<path style=" stroke:none;fill-rule:nonzero;fill:rgb(0%,0%,0%);fill-opacity:1;" d="M 264.101562 244.75 C 264.046875 247.050781 264.460938 249 265 249 C 265.53125 249 266 250.148438 266 251.449219 C 266 253.25 266.398438 253.753906 267.5 253.351562 C 268.523438 252.976562 269 251.398438 269 248.398438 C 269 244.699219 268.691406 244 267.050781 244 C 265.949219 244 264.902344 243.238281 264.648438 242.25 C 264.40625 241.304688 264.152344 242.449219 264.101562 244.75 "/>
<path style=" stroke:none;fill-rule:nonzero;fill:rgb(0%,0%,0%);fill-opacity:1;" d="M 290 245.5 C 290 247 290.558594 248 291.398438 248 C 292.199219 248 293.015625 248.535156 293.300781 249.25 C 293.578125 249.949219 293.84375 248.851562 293.898438 246.75 C 293.984375 243.648438 293.652344 243 292 243 C 290.558594 243 290 243.699219 290 245.5 "/>
<path style=" stroke:none;fill-rule:nonzero;fill:rgb(0%,0%,0%);fill-opacity:1;" d="M 302.5 244 C 302.140625 244.601562 302.300781 245 302.898438 245 C 303.5 245 304.140625 244.601562 304.5 244 C 304.859375 243.398438 304.699219 243 304.101562 243 C 303.5 243 302.859375 243.398438 302.5 244 "/>
<path style=" stroke:none;fill-rule:nonzero;fill:rgb(0%,0%,0%);fill-opacity:1;" d="M 351 248.5 C 351 249.289062 351.898438 250 352.898438 250 C 353.898438 250 355.0625 249.289062 355.351562 248.5 C 355.753906 247.398438 355.25 247 353.449219 247 C 351.949219 247 351 247.582031 351 248.5 "/>
<path style=" stroke:none;fill-rule:nonzero;fill:rgb(0%,0%,0%);fill-opacity:1;" d="M 278.199219 251 C 278.199219 252.898438 278.40625 253.699219 278.648438 252.75 C 278.90625 251.75 278.90625 250.25 278.648438 249.25 C 278.40625 248.300781 278.199219 249.101562 278.199219 251 "/>
<path style=" stroke:none;fill-rule:nonzero;fill:rgb(0%,0%,0%);fill-opacity:1;" d="M 337 252.351562 C 337 253.550781 337.332031 254.015625 337.75 253.398438 C 338.164062 252.792969 339.148438 252.097656 339.949219 251.851562 C 340.9375 251.542969 340.699219 251.210938 339.199219 250.800781 C 337.398438 250.308594 337 250.589844 337 252.351562 "/>
<path style=" stroke:none;fill-rule:nonzero;fill:rgb(0%,0%,0%);fill-opacity:1;" d="M 339 272.449219 C 339 273.320312 339.601562 273.679688 340.5 273.351562 C 341.300781 273.058594 342 272.378906 342 271.898438 C 342 271.421875 341.300781 271 340.5 271 C 339.699219 271 339 271.675781 339 272.449219 "/>
<path style=" stroke:none;fill-rule:nonzero;fill:rgb(0%,0%,0%);fill-opacity:1;" d="M 332.800781 281.5 C 333.144531 284.5 332.898438 285 331.101562 285 C 329.699219 285 329 285.667969 329 287 C 329 289.96875 330.15625 289.398438 333.484375 284.800781 C 338.398438 278 338.398438 278 335.199219 278 C 332.558594 278 332.421875 278.199219 332.800781 281.5 "/>
<path style=" stroke:none;fill-rule:nonzero;fill:rgb(0%,0%,0%);fill-opacity:1;" d="M 276.5 283 C 276.164062 283.5625 276.601562 284 277.5 284 C 278.398438 284 278.839844 283.5625 278.5 283 C 278.140625 282.398438 277.738281 282 277.5 282 C 277.261719 282 276.859375 282.398438 276.5 283 "/>
<path style=" stroke:none;fill-rule:nonzero;fill:rgb(0%,0%,0%);fill-opacity:1;" d="M 324 294.5 C 324 298.199219 325.453125 299.933594 326.429688 297.398438 C 327.589844 294.398438 327.09375 291 325.5 291 C 324.472656 291 324 292.101562 324 294.5 "/>
<path style=" stroke:none;fill-rule:nonzero;fill:rgb(0%,0%,0%);fill-opacity:1;" d="M 275 298.648438 C 275 299.351562 274.496094 300 273.949219 300 C 273.277344 300 273.007812 303.648438 273.199219 310.148438 C 273.449219 318.550781 273.800781 320.488281 275.25 321.398438 C 276.550781 322.21875 277.449219 322.21875 278.75 321.398438 C 280.214844 320.480469 280.550781 318.550781 280.800781 309.648438 C 281.058594 300.449219 280.890625 299.082031 279.550781 299.601562 C 278.550781 299.988281 278 299.6875 278 298.75 C 278 297.976562 277.300781 297.300781 276.5 297.300781 C 275.699219 297.300781 275 297.929688 275 298.648438 "/>
<path style=" stroke:none;fill-rule:nonzero;fill:rgb(0%,0%,0%);fill-opacity:1;" d="M 316.800781 340.699219 C 317.5 340.96875 318.378906 340.921875 318.699219 340.601562 C 319.015625 340.285156 318.398438 340.046875 317.398438 340.101562 C 316.199219 340.164062 315.980469 340.382812 316.800781 340.699219 "/>
<path style=" stroke:none;fill-rule:nonzero;fill:rgb(0%,0%,0%);fill-opacity:1;" d="M 171.75 395.699219 C 172.949219 395.914062 174.816406 395.890625 175.75 395.648438 C 176.714844 395.402344 175.699219 395.222656 173.5 395.25 C 171.300781 395.277344 170.511719 395.480469 171.75 395.699219 "/>
<path style=" stroke:none;fill-rule:nonzero;fill:rgb(0%,0%,0%);fill-opacity:1;" d="M 334.101562 396.601562 C 334.164062 397.800781 334.382812 398.019531 334.699219 397.199219 C 334.96875 396.5 334.921875 395.621094 334.601562 395.300781 C 334.285156 394.984375 334.046875 395.601562 334.101562 396.601562 "/>
<path style=" stroke:none;fill-rule:nonzero;fill:rgb(0%,0%,0%);fill-opacity:1;" d="M 314.25 404.699219 C 315.25 404.984375 316.535156 404.984375 317.25 404.699219 C 317.957031 404.417969 317.199219 404.199219 315.5 404.199219 C 313.800781 404.199219 313.257812 404.417969 314.25 404.699219 "/>
<path style=" stroke:none;fill-rule:nonzero;fill:rgb(0%,0%,0%);fill-opacity:1;" d="M 403.648438 405.5 C 403.941406 406.300781 404.386719 407 404.601562 407 C 404.8125 407 405 406.300781 405 405.5 C 405 404.699219 404.558594 404 404.050781 404 C 403.542969 404 403.355469 404.699219 403.648438 405.5 "/>
<path style=" stroke:none;fill-rule:nonzero;fill:rgb(0%,0%,0%);fill-opacity:1;" d="M 397.25 407.699219 C 398.25 407.984375 399.535156 407.984375 400.25 407.699219 C 400.957031 407.417969 400.199219 407.199219 398.5 407.199219 C 396.800781 407.199219 396.257812 407.417969 397.25 407.699219 "/>
</g>
</svg>
